<svg width="20" height="19" viewBox="0 0 20 19" fill="none" xmlns="http://www.w3.org/2000/svg">
<path d="M17.8046 9.65513L17.825 9.67567L9.46555 18.0351L1.61247 10.1816C-0.580953 7.85822 -0.532224 4.20459 1.7318 1.94056C3.82924 -0.156877 7.11893 -0.352852 9.43778 1.37425C11.7605 -0.57037 15.2255 -0.45127 17.4083 1.73153C19.5765 3.89968 19.7086 7.33286 17.8046 9.65513ZM9.48263 3.42077L9.00257 2.94072L8.88726 2.83305C7.14378 1.25257 4.45275 1.30982 2.77691 2.98566C1.07886 4.6837 1.0423 7.42463 2.67239 9.15176L9.46555 15.9449L15.7375 9.67295L15.7213 9.65663L16.318 9.0919L16.3632 9.04725C18.0948 7.31566 18.0948 4.50822 16.3632 2.77663C14.6317 1.04507 11.8242 1.04505 10.0974 2.77181L10.0395 2.8306L9.9491 2.92638L9.50819 3.41875L9.49567 3.40694L9.48263 3.42077Z" fill="#E76F51"/>
</svg>
